<?xml version="1.0" encoding="UTF-8" standalone="no"?>
<!DOCTYPE svg PUBLIC "-//W3C//DTD SVG 1.1//EN"
 "http://www.w3.org/Graphics/SVG/1.1/DTD/svg11.dtd">
<!-- Generated by graphviz version 12.1.0 (20240811.2233)
 -->
<!-- Title: NeuralNetwork Pages: 1 -->
<svg width="372pt" height="44pt"
 viewBox="0.00 0.00 371.75 44.00" xmlns="http://www.w3.org/2000/svg" xmlns:xlink="http://www.w3.org/1999/xlink">
<g id="graph0" class="graph" transform="scale(1 1) rotate(0) translate(4 40)">
<title>NeuralNetwork</title>
<polygon fill="white" stroke="none" points="-4,4 -4,-40 367.75,-40 367.75,4 -4,4"/>
<!-- node7 -->
<g id="node1" class="node">
<title>node7</title>
<polygon fill="lightgray" stroke="black" points="363.75,-36 290.75,-36 290.75,0 363.75,0 363.75,-36"/>
<text text-anchor="middle" x="327.25" y="-12.95" font-family="Times,serif" font-size="14.00">ScalarAdd</text>
</g>
<!-- node6 -->
<g id="node2" class="node">
<title>node6</title>
<polygon fill="lightgray" stroke="black" points="254.75,-36 199,-36 199,0 254.75,0 254.75,-36"/>
<text text-anchor="middle" x="226.88" y="-12.95" font-family="Times,serif" font-size="14.00">Convol</text>
</g>
<!-- node6&#45;&gt;node7 -->
<g id="edge1" class="edge">
<title>node6&#45;&gt;node7</title>
<path fill="none" stroke="black" d="M255.02,-18C262.44,-18 270.7,-18 278.9,-18"/>
<polygon fill="black" stroke="black" points="278.84,-21.5 288.84,-18 278.84,-14.5 278.84,-21.5"/>
</g>
<!-- node5 -->
<g id="node3" class="node">
<title>node5</title>
<polygon fill="lightgray" stroke="black" points="163,-36 90,-36 90,0 163,0 163,-36"/>
<text text-anchor="middle" x="126.5" y="-12.95" font-family="Times,serif" font-size="14.00">ScalarAdd</text>
</g>
<!-- node5&#45;&gt;node6 -->
<g id="edge2" class="edge">
<title>node5&#45;&gt;node6</title>
<path fill="none" stroke="black" d="M163.29,-18C171.03,-18 179.24,-18 187.08,-18"/>
<polygon fill="black" stroke="black" points="187.08,-21.5 197.08,-18 187.08,-14.5 187.08,-21.5"/>
</g>
<!-- node0 -->
<g id="node4" class="node">
<title>node0</title>
<polygon fill="lightgray" stroke="black" points="54,-36 0,-36 0,0 54,0 54,-36"/>
<text text-anchor="middle" x="27" y="-12.95" font-family="Times,serif" font-size="14.00">Input</text>
</g>
<!-- node0&#45;&gt;node5 -->
<g id="edge3" class="edge">
<title>node0&#45;&gt;node5</title>
<path fill="none" stroke="black" d="M54.38,-18C61.74,-18 69.97,-18 78.15,-18"/>
<polygon fill="black" stroke="black" points="78.06,-21.5 88.06,-18 78.06,-14.5 78.06,-21.5"/>
</g>
</g>
</svg>
