<?xml version="1.0" encoding="UTF-8" standalone="no"?>
<!DOCTYPE svg PUBLIC "-//W3C//DTD SVG 1.1//EN"
 "http://www.w3.org/Graphics/SVG/1.1/DTD/svg11.dtd">
<!-- Generated by graphviz version 12.1.0 (20240811.2233)
 -->
<!-- Title: NeuralNetwork Pages: 1 -->
<svg width="778pt" height="157pt"
 viewBox="0.00 0.00 778.25 157.00" xmlns="http://www.w3.org/2000/svg" xmlns:xlink="http://www.w3.org/1999/xlink">
<g id="graph0" class="graph" transform="scale(1 1) rotate(0) translate(4 153)">
<title>NeuralNetwork</title>
<polygon fill="white" stroke="none" points="-4,4 -4,-153 774.25,-153 774.25,4 -4,4"/>
<!-- node1 -->
<g id="node1" class="node">
<title>node1</title>
<polygon fill="lightgray" stroke="black" points="163,-97 90,-97 90,-56 163,-56 163,-97"/>
<text text-anchor="middle" x="126.5" y="-79.7" font-family="Times,serif" font-size="14.00">ScalarAdd</text>
<text text-anchor="middle" x="126.5" y="-63.2" font-family="Times,serif" font-size="14.00">(id=1)</text>
</g>
<!-- node2 -->
<g id="node6" class="node">
<title>node2</title>
<polygon fill="lightgray" stroke="black" points="272,-100 199,-100 199,-59 272,-59 272,-100"/>
<text text-anchor="middle" x="235.5" y="-82.7" font-family="Times,serif" font-size="14.00">ScalarMul</text>
<text text-anchor="middle" x="235.5" y="-66.2" font-family="Times,serif" font-size="14.00">(id=2)</text>
</g>
<!-- node1&#45;&gt;node2 -->
<g id="edge1" class="edge">
<title>node1&#45;&gt;node2</title>
<path fill="none" stroke="black" d="M163.43,-77.51C171.18,-77.72 179.5,-77.96 187.6,-78.19"/>
<polygon fill="black" stroke="black" points="187.24,-81.68 197.34,-78.46 187.44,-74.68 187.24,-81.68"/>
</g>
<!-- node5 -->
<g id="node2" class="node">
<title>node5</title>
<polygon fill="lightgray" stroke="black" points="272,-41 199,-41 199,0 272,0 272,-41"/>
<text text-anchor="middle" x="235.5" y="-23.7" font-family="Times,serif" font-size="14.00">ScalarAdd</text>
<text text-anchor="middle" x="235.5" y="-7.2" font-family="Times,serif" font-size="14.00">(id=5)</text>
</g>
<!-- node8 -->
<g id="node8" class="node">
<title>node8</title>
<polygon fill="lightgray" stroke="black" points="671.75,-65 598.75,-65 598.75,-24 671.75,-24 671.75,-65"/>
<text text-anchor="middle" x="635.25" y="-47.7" font-family="Times,serif" font-size="14.00">ScalarAdd</text>
<text text-anchor="middle" x="635.25" y="-31.2" font-family="Times,serif" font-size="14.00">(id=8)</text>
</g>
<!-- node5&#45;&gt;node8 -->
<g id="edge2" class="edge">
<title>node5&#45;&gt;node8</title>
<path fill="none" stroke="black" d="M272.5,-22.67C344.59,-27.02 506.62,-36.8 587.07,-41.65"/>
<polygon fill="black" stroke="black" points="586.63,-45.13 596.82,-42.24 587.05,-38.15 586.63,-45.13"/>
</g>
<!-- node0 -->
<g id="node3" class="node">
<title>node0</title>
<polygon fill="lightgray" stroke="black" points="54,-70 0,-70 0,-29 54,-29 54,-70"/>
<text text-anchor="middle" x="27" y="-52.7" font-family="Times,serif" font-size="14.00">Input</text>
<text text-anchor="middle" x="27" y="-36.2" font-family="Times,serif" font-size="14.00">(id=0)</text>
</g>
<!-- node0&#45;&gt;node1 -->
<g id="edge3" class="edge">
<title>node0&#45;&gt;node1</title>
<path fill="none" stroke="black" d="M54.38,-56.81C61.91,-58.89 70.35,-61.23 78.71,-63.54"/>
<polygon fill="black" stroke="black" points="77.55,-66.85 88.12,-66.15 79.41,-60.11 77.55,-66.85"/>
</g>
<!-- node0&#45;&gt;node5 -->
<g id="edge4" class="edge">
<title>node0&#45;&gt;node5</title>
<path fill="none" stroke="black" d="M54.15,-45.83C87.58,-41.13 146.07,-32.92 187.36,-27.12"/>
<polygon fill="black" stroke="black" points="187.6,-30.62 197.02,-25.76 186.63,-23.69 187.6,-30.62"/>
</g>
<!-- node4 -->
<g id="node4" class="node">
<title>node4</title>
<polygon fill="lightgray" stroke="black" points="453.75,-149 398,-149 398,-108 453.75,-108 453.75,-149"/>
<text text-anchor="middle" x="425.88" y="-131.7" font-family="Times,serif" font-size="14.00">Convol</text>
<text text-anchor="middle" x="425.88" y="-115.2" font-family="Times,serif" font-size="14.00">(id=4)</text>
</g>
<!-- node7 -->
<g id="node7" class="node">
<title>node7</title>
<polygon fill="lightgray" stroke="black" points="562.75,-90 489.75,-90 489.75,-49 562.75,-49 562.75,-90"/>
<text text-anchor="middle" x="526.25" y="-72.7" font-family="Times,serif" font-size="14.00">ScalarAdd</text>
<text text-anchor="middle" x="526.25" y="-56.2" font-family="Times,serif" font-size="14.00">(id=7)</text>
</g>
<!-- node4&#45;&gt;node7 -->
<g id="edge5" class="edge">
<title>node4&#45;&gt;node7</title>
<path fill="none" stroke="black" d="M454.02,-112.22C462.29,-107.26 471.6,-101.67 480.71,-96.21"/>
<polygon fill="black" stroke="black" points="482.37,-99.3 489.14,-91.15 478.77,-93.3 482.37,-99.3"/>
</g>
<!-- node6 -->
<g id="node5" class="node">
<title>node6</title>
<polygon fill="lightgray" stroke="black" points="453.75,-90 398,-90 398,-49 453.75,-49 453.75,-90"/>
<text text-anchor="middle" x="425.88" y="-72.7" font-family="Times,serif" font-size="14.00">Convol</text>
<text text-anchor="middle" x="425.88" y="-56.2" font-family="Times,serif" font-size="14.00">(id=6)</text>
</g>
<!-- node6&#45;&gt;node7 -->
<g id="edge6" class="edge">
<title>node6&#45;&gt;node7</title>
<path fill="none" stroke="black" d="M454.02,-69.5C461.44,-69.5 469.7,-69.5 477.9,-69.5"/>
<polygon fill="black" stroke="black" points="477.84,-73 487.84,-69.5 477.84,-66 477.84,-73"/>
</g>
<!-- node2&#45;&gt;node4 -->
<g id="edge8" class="edge">
<title>node2&#45;&gt;node4</title>
<path fill="none" stroke="black" d="M272.36,-91.08C283.71,-94.6 296.34,-98.36 308,-101.5 334.15,-108.53 363.89,-115.39 386.82,-120.43"/>
<polygon fill="black" stroke="black" points="385.82,-123.79 396.34,-122.5 387.31,-116.95 385.82,-123.79"/>
</g>
<!-- node3 -->
<g id="node9" class="node">
<title>node3</title>
<polygon fill="lightgray" stroke="black" points="362,-92 308,-92 308,-51 362,-51 362,-92"/>
<text text-anchor="middle" x="335" y="-74.7" font-family="Times,serif" font-size="14.00">ReLU</text>
<text text-anchor="middle" x="335" y="-58.2" font-family="Times,serif" font-size="14.00">(id=3)</text>
</g>
<!-- node2&#45;&gt;node3 -->
<g id="edge7" class="edge">
<title>node2&#45;&gt;node3</title>
<path fill="none" stroke="black" d="M272.25,-76.57C280.14,-75.92 288.52,-75.23 296.47,-74.58"/>
<polygon fill="black" stroke="black" points="296.53,-78.09 306.21,-73.78 295.96,-71.11 296.53,-78.09"/>
</g>
<!-- node7&#45;&gt;node8 -->
<g id="edge9" class="edge">
<title>node7&#45;&gt;node8</title>
<path fill="none" stroke="black" d="M563.18,-61.11C571.02,-59.27 579.44,-57.31 587.63,-55.39"/>
<polygon fill="black" stroke="black" points="588.18,-58.86 597.13,-53.17 586.59,-52.04 588.18,-58.86"/>
</g>
<!-- node9 -->
<g id="node10" class="node">
<title>node9</title>
<polygon fill="lightgray" stroke="black" points="770.25,-65 707.75,-65 707.75,-24 770.25,-24 770.25,-65"/>
<text text-anchor="middle" x="739" y="-47.7" font-family="Times,serif" font-size="14.00">Softmax</text>
<text text-anchor="middle" x="739" y="-31.2" font-family="Times,serif" font-size="14.00">(id=9)</text>
</g>
<!-- node8&#45;&gt;node9 -->
<g id="edge10" class="edge">
<title>node8&#45;&gt;node9</title>
<path fill="none" stroke="black" d="M672.12,-44.5C679.89,-44.5 688.17,-44.5 696.14,-44.5"/>
<polygon fill="black" stroke="black" points="695.99,-48 705.99,-44.5 695.99,-41 695.99,-48"/>
</g>
<!-- node3&#45;&gt;node6 -->
<g id="edge11" class="edge">
<title>node3&#45;&gt;node6</title>
<path fill="none" stroke="black" d="M362.18,-70.91C369.77,-70.74 378.22,-70.55 386.39,-70.37"/>
<polygon fill="black" stroke="black" points="386.21,-73.87 396.13,-70.15 386.05,-66.87 386.21,-73.87"/>
</g>
</g>
</svg>
