<?xml version="1.0" encoding="UTF-8" standalone="no"?>
<!DOCTYPE svg PUBLIC "-//W3C//DTD SVG 1.1//EN"
 "http://www.w3.org/Graphics/SVG/1.1/DTD/svg11.dtd">
<!-- Generated by graphviz version 12.1.0 (20240811.2233)
 -->
<!-- Title: NeuralNetwork Pages: 1 -->
<svg width="280pt" height="49pt"
 viewBox="0.00 0.00 280.00 49.00" xmlns="http://www.w3.org/2000/svg" xmlns:xlink="http://www.w3.org/1999/xlink">
<g id="graph0" class="graph" transform="scale(1 1) rotate(0) translate(4 45)">
<title>NeuralNetwork</title>
<polygon fill="white" stroke="none" points="-4,4 -4,-45 276,-45 276,4 -4,4"/>
<!-- node0 -->
<g id="node1" class="node">
<title>node0</title>
<polygon fill="lightgray" stroke="black" points="54,-41 0,-41 0,0 54,0 54,-41"/>
<text text-anchor="middle" x="27" y="-23.7" font-family="Times,serif" font-size="14.00">Input</text>
<text text-anchor="middle" x="27" y="-7.2" font-family="Times,serif" font-size="14.00">(id=0)</text>
</g>
<!-- node1 -->
<g id="node3" class="node">
<title>node1</title>
<polygon fill="lightgray" stroke="black" points="163,-41 90,-41 90,0 163,0 163,-41"/>
<text text-anchor="middle" x="126.5" y="-23.7" font-family="Times,serif" font-size="14.00">ScalarAdd</text>
<text text-anchor="middle" x="126.5" y="-7.2" font-family="Times,serif" font-size="14.00">(id=1)</text>
</g>
<!-- node0&#45;&gt;node1 -->
<g id="edge1" class="edge">
<title>node0&#45;&gt;node1</title>
<path fill="none" stroke="black" d="M54.38,-20.5C61.74,-20.5 69.97,-20.5 78.15,-20.5"/>
<polygon fill="black" stroke="black" points="78.06,-24 88.06,-20.5 78.06,-17 78.06,-24"/>
</g>
<!-- node2 -->
<g id="node2" class="node">
<title>node2</title>
<polygon fill="lightgray" stroke="black" points="272,-41 199,-41 199,0 272,0 272,-41"/>
<text text-anchor="middle" x="235.5" y="-23.7" font-family="Times,serif" font-size="14.00">ScalarMul</text>
<text text-anchor="middle" x="235.5" y="-7.2" font-family="Times,serif" font-size="14.00">(id=2)</text>
</g>
<!-- node1&#45;&gt;node2 -->
<g id="edge2" class="edge">
<title>node1&#45;&gt;node2</title>
<path fill="none" stroke="black" d="M163.43,-20.5C171.18,-20.5 179.5,-20.5 187.6,-20.5"/>
<polygon fill="black" stroke="black" points="187.34,-24 197.34,-20.5 187.34,-17 187.34,-24"/>
</g>
</g>
</svg>
